<?xml version="1.0" encoding="UTF-8" standalone="yes"?><svg fill="none" xmlns="http://www.w3.org/2000/svg" xmlns:xlink="http://www.w3.org/1999/xlink" version="1.2" baseProfile="tiny" x="0" y="0" width="256" height="256" viewBox="0 0 256 256"><defs><linearGradient id="wps{355bc5eb-2c3a-4bca-8b32-64bd6b48daab}_solid@Accent4_0.00@Accent4_0.00" x1="0" y1="0.5" x2="1" y2="0.5" spreadMethod="pad" gradientUnits="userSpaceOnUse"><stop offset="0" stop-color="#75bd42" stop-opacity="1"/><stop offset="1" stop-color="#75bd42" stop-opacity="1"/></linearGradient></defs><path fill="url(#wps{355bc5eb-2c3a-4bca-8b32-64bd6b48daab}_solid@Accent4_0.00@Accent4_0.00)" fill-opacity="1" fill-rule="evenodd" clip-rule="evenodd" d="M 95.241 7.33374 C 95.241 4.57232 97.4795 2.33374 100.241 2.33374 L 100.343 2.33374 C 103.105 2.33374 105.343 4.57232 105.343 7.33374 L 105.343 30.1466 L 122.976 12.514 C 124.004 11.4865 125.427 10.9568 126.877 11.0629 C 128.326 11.1689 129.657 11.9002 130.524 13.0664 L 130.585 13.1485 C 132.065 15.1389 131.862 17.9133 130.108 19.6672 L 105.343 44.4321 L 105.343 75.5837 C 105.343 78.3452 103.105 80.5837 100.343 80.5837 L 100.242 80.5837 C 97.4804 80.5837 95.241 78.3452 95.241 75.5837 L 95.241 44.4322 L 70.4759 19.6672 C 68.7169 17.9082 68.5185 15.1238 70.0102 13.1332 L 70.0718 13.0511 C 70.9412 11.8909 72.2714 11.1652 73.7175 11.0622 C 75.1636 10.9591 76.5833 11.4888 77.6084 12.514 L 95.241 30.1465 L 95.241 7.33374 M 73.9996 16.1228 L 70.5374 19.5851 L 95.241 44.2886"/><path fill="url(#wps{355bc5eb-2c3a-4bca-8b32-64bd6b48daab}_solid@Accent4_0.00@Accent4_0.00)" fill-opacity="1" fill-rule="evenodd" clip-rule="evenodd" d="M 95.241 107.084 C 95.241 104.322 97.4795 102.084 100.241 102.084 L 100.343 102.084 C 103.105 102.084 105.343 104.322 105.343 107.084 L 105.343 141.755 L 128.341 164.965 C 129.276 165.909 129.797 167.187 129.789 168.516 C 129.781 169.845 129.243 171.116 128.296 172.048 L 128.234 172.109 C 126.271 174.041 123.116 174.021 121.177 172.066 L 105.343 156.099 L 105.343 175.333 C 105.343 178.095 103.105 180.333 100.343 180.333 L 100.241 180.333 C 97.4795 180.333 95.241 178.095 95.241 175.333 L 95.241 156.027 L 77.6084 173.66 C 76.5847 174.683 75.1675 175.213 73.7234 175.112 C 72.2792 175.011 70.9497 174.288 70.0788 173.132 L 70.0173 173.05 C 68.5182 171.06 68.7138 168.269 70.4758 166.507 L 95.241 141.742 L 95.241 107.084 Z"/><path fill="url(#wps{355bc5eb-2c3a-4bca-8b32-64bd6b48daab}_solid@Accent4_0.00@Accent4_0.00)" fill-opacity="1" fill-rule="evenodd" clip-rule="evenodd" d="M 45.9728 25.1654 C 48.5132 24.7406 50.9606 26.3152 51.6271 28.8031 L 60.6888 62.6298 L 89.2263 79.1077 C 90.7732 80.0009 91.7261 81.6515 91.7261 83.4378 C 91.7261 83.8815 91.6684 84.327 91.5512 84.7631 C 91.4374 85.1864 91.2904 85.5149 91.1868 85.7224 C 91.1453 85.8054 91.1024 85.8847 91.0718 85.9397 C 90.4429 87.0895 89.386 87.949 88.1263 88.3281 C 86.8061 88.7255 85.3803 88.5601 84.1862 87.8711 L 55.6276 71.392 L 21.8002 80.454 C 19.3551 81.109 16.8063 79.8334 15.865 77.4836 L 15.8239 77.3811 C 15.2922 76.054 15.3542 74.5627 15.994 73.2842 C 16.6338 72.0056 17.7903 71.0622 19.1713 70.6922 L 43.2527 64.2401 L 23.5034 52.8437 C 22.3421 52.1736 21.4987 51.0652 21.1623 49.7673 C 20.826 48.4694 21.025 47.0909 21.7146 45.9411 L 21.7762 45.8385 C 23.1799 43.4982 26.201 42.7158 28.5643 44.0805 L 48.2955 55.4742 L 41.8449 31.4122 C 41.4798 30.0506 41.7065 28.5982 42.4691 27.4126 C 43.2317 26.227 44.4594 25.4184 45.8497 25.186 L 45.9728 25.1654 Z"/><path fill="url(#wps{355bc5eb-2c3a-4bca-8b32-64bd6b48daab}_solid@Accent4_0.00@Accent4_0.00)" fill-opacity="1" fill-rule="evenodd" clip-rule="evenodd" d="M 91.0718 96.7268 C 90.4427 95.5766 89.3853 94.717 88.125 94.3381 C 86.8043 93.9409 85.3782 94.1069 84.184 94.7968 L 55.6276 111.294 L 21.8028 102.213 C 19.3577 101.557 16.8078 102.832 15.8656 105.181 L 15.8245 105.284 C 15.2923 106.611 15.3539 108.103 15.9936 109.382 C 16.6334 110.66 17.7901 111.604 19.1714 111.974 L 43.2529 118.426 L 23.5033 129.823 C 22.3414 130.494 21.4977 131.603 21.1618 132.902 C 20.8258 134.201 21.0259 135.58 21.7169 136.73 L 21.7784 136.832 C 23.1834 139.17 26.2025 139.95 28.5643 138.586 L 48.2954 127.192 L 41.8448 151.254 C 41.48 152.615 41.7063 154.067 42.4681 155.252 C 43.2299 156.438 44.4565 157.246 45.8461 157.48 L 45.9691 157.501 C 48.5106 157.927 50.9602 156.353 51.6271 153.863 L 60.6888 120.037 L 89.2263 103.559 C 90.7732 102.666 91.7261 101.015 91.7261 99.2288 C 91.7261 98.7851 91.6684 98.3396 91.5512 97.9035 C 91.4374 97.4801 91.2904 97.1517 91.1868 96.9442 C 91.1453 96.8611 91.1023 96.7818 91.0718 96.7268 Z"/><path fill="url(#wps{355bc5eb-2c3a-4bca-8b32-64bd6b48daab}_solid@Accent4_0.00@Accent4_0.00)" fill-opacity="1" fill-rule="evenodd" clip-rule="evenodd" d="M 100.303 80.5837 C 94.3687 80.5837 89.5526 85.3998 89.5526 91.3337 C 89.5526 97.2675 94.3687 102.084 100.303 102.084 C 106.237 102.084 111.053 97.2674 111.053 91.3337 C 111.053 85.3999 106.237 80.5837 100.303 80.5837 M 79.5526 91.3337 C 79.5526 79.877 88.8459 70.5837 100.303 70.5837 C 111.759 70.5837 121.053 79.8768 121.053 91.3337 C 121.053 102.79 111.759 112.084 100.303 112.084 C 88.8459 112.084 79.5526 102.79 79.5526 91.3337"/><path fill="url(#wps{355bc5eb-2c3a-4bca-8b32-64bd6b48daab}_solid@Accent4_0.00@Accent4_0.00)" fill-opacity="1" fill-rule="evenodd" clip-rule="evenodd" d="M 112.468 94.3355 C 113.786 93.9418 115.209 94.1088 116.4 94.797 L 144.963 111.297 L 145.2 111.234 C 146.701 110.835 148.302 111.156 149.533 112.102 C 150.764 113.048 151.485 114.513 151.485 116.066 L 151.485 116.168 C 151.485 116.469 151.459 116.764 151.407 117.051 C 151.459 117.339 151.485 117.634 151.485 117.932 L 151.485 118.056 C 151.485 119.088 151.167 120.075 150.599 120.897 L 151.315 123.57 C 151.428 123.992 151.485 124.427 151.485 124.863 L 151.485 125.274 C 151.485 127.782 149.627 129.902 147.141 130.231 C 144.655 130.56 142.309 128.995 141.657 126.574 L 139.898 120.038 L 111.358 103.559 C 109.209 102.318 108.312 99.7043 109.195 97.4262 C 109.203 97.4034 109.212 97.3793 109.222 97.3544 C 109.25 97.282 109.281 97.2041 109.318 97.1216 C 109.354 97.0393 109.393 96.9579 109.433 96.8776 C 110.052 95.6488 111.15 94.7292 112.468 94.3355 Z"/><path fill="url(#wps{355bc5eb-2c3a-4bca-8b32-64bd6b48daab}_solid@Accent4_0.00@Accent4_0.00)" fill-opacity="1" fill-rule="evenodd" clip-rule="evenodd" d="M 147.141 52.4361 C 149.627 52.7649 151.485 54.8849 151.485 57.3929 L 151.485 57.8031 C 151.485 58.2398 151.428 58.6747 151.315 59.0965 L 150.599 61.7698 C 151.167 62.5917 151.485 63.5791 151.485 64.6116 L 151.485 64.7347 C 151.485 65.0332 151.459 65.3278 151.407 65.6158 C 151.459 65.9033 151.485 66.1984 151.485 66.4984 L 151.485 66.6214 C 151.485 68.1744 150.764 69.6392 149.533 70.5857 C 148.301 71.5321 146.7 71.8527 145.199 71.4532 L 144.961 71.3897 L 116.398 87.8711 C 114.446 88.9975 111.981 88.6787 110.38 87.0928 C 109.78 86.4979 109.463 85.8855 109.304 85.5207 C 109.227 85.3444 109.169 85.1821 109.129 85.0609 C 108.36 82.8265 109.265 80.3163 111.358 79.1078 L 139.898 62.6281 L 141.657 56.0932 C 142.309 53.6714 144.655 52.1073 147.141 52.4361 Z"/><path fill="url(#wps{355bc5eb-2c3a-4bca-8b32-64bd6b48daab}_solid@Accent4_0.00@Accent4_0.00)" fill-opacity="1" fill-rule="evenodd" clip-rule="evenodd" d="M 141.485 38.8338 C 141.485 18.7432 157.895 2.33374 177.986 2.33374 C 198.077 2.33374 214.486 18.7433 214.486 38.8338 L 214.486 140.071 C 230.354 151.452 240.736 170.041 240.736 191.083 C 240.736 225.735 212.637 253.834 177.986 253.834 C 143.335 253.834 115.236 225.735 115.236 191.083 C 115.236 170.041 125.618 151.452 141.485 140.071 L 141.485 38.8338 M 177.986 12.3337 C 163.418 12.3337 151.486 24.2661 151.486 38.8338 L 151.486 142.705 C 151.486 144.394 150.634 145.968 149.22 146.891 C 134.777 156.328 125.236 172.588 125.236 191.083 C 125.236 220.212 148.858 243.834 177.986 243.834 C 207.114 243.834 230.736 220.212 230.736 191.083 C 230.736 172.588 221.195 156.328 206.751 146.891 C 205.337 145.968 204.486 144.394 204.486 142.705 L 204.486 38.8338 C 204.486 24.266 192.554 12.3337 177.986 12.3337"/><path fill="url(#wps{355bc5eb-2c3a-4bca-8b32-64bd6b48daab}_solid@Accent4_0.00@Accent4_0.00)" fill-opacity="1" fill-rule="evenodd" clip-rule="evenodd" d="M 177.986 175.084 C 169.14 175.084 161.986 182.237 161.986 191.083 C 161.986 199.93 169.14 207.083 177.986 207.083 C 186.832 207.083 193.986 199.929 193.986 191.083 C 193.986 182.237 186.832 175.084 177.986 175.084 M 151.986 191.083 C 151.986 176.714 163.617 165.084 177.986 165.084 C 192.354 165.084 203.986 176.714 203.986 191.083 C 203.986 205.453 192.354 217.083 177.986 217.083 C 163.617 217.083 151.986 205.453 151.986 191.083"/><path fill="url(#wps{355bc5eb-2c3a-4bca-8b32-64bd6b48daab}_solid@Accent4_0.00@Accent4_0.00)" fill-opacity="1" fill-rule="evenodd" clip-rule="evenodd" d="M 180.802 39.8888 C 181.966 40.6647 183.048 42.1287 183.048 44.0837 L 183.048 170.084 C 183.048 171.426 182.522 172.528 181.907 173.282 C 181.161 174.196 179.818 175.145 177.986 175.145 C 176.112 175.145 174.77 174.157 174.046 173.259 C 173.446 172.514 172.924 171.421 172.924 170.084 L 172.924 44.0837 C 172.924 42.1287 174.006 40.6647 175.17 39.8888 C 176.186 39.2116 177.229 39.0375 177.986 39.0375 C 178.743 39.0375 179.786 39.2116 180.802 39.8888 Z"/></svg>
