<?xml version="1.0" encoding="UTF-8" standalone="yes"?><svg id="图层_1" xmlns="http://www.w3.org/2000/svg" xmlns:xlink="http://www.w3.org/1999/xlink" version="1.2" baseProfile="tiny" x="0" y="0" width="256" height="256" viewBox="0 0 256 256"><defs><linearGradient id="wps{34a35bcc-327a-4ffc-babd-86b7a3efeb3b}_solid@Accent4_0.00@Accent4_0.00" x1="0" y1="0.5" x2="1" y2="0.5" spreadMethod="pad" gradientUnits="userSpaceOnUse"><stop offset="0" stop-color="#75bd42" stop-opacity="1"/><stop offset="1" stop-color="#75bd42" stop-opacity="1"/></linearGradient></defs><defs><clipPath id="clip-path" clipPathUnits="userSpaceOnUse"><rect class="cls-2" fill="none" x="0" y="0" width="256" height="256"/></clipPath><g id="mask0_18_32692"><path fill="url(#wps{34a35bcc-327a-4ffc-babd-86b7a3efeb3b}_solid@Accent4_0.00@Accent4_0.00)" fill-opacity="1" d="M 256 0 L 0 0 L 0 256 L 256 256 L 256 0 Z"/></g></defs><g class="cls-3" clip-path="url(#clip-path)"><g class="cls-4"><path fill="url(#wps{34a35bcc-327a-4ffc-babd-86b7a3efeb3b}_solid@Accent4_0.00@Accent4_0.00)" fill-opacity="1" d="M 220.77 151.34 L 218.55 151.61 L 216.45 151.85 L 214.53 152.09 L 212.53 152.36 L 210.76 152.51 L 209.17 152.78 L 207.55 152.96 L 206.14 153.17 L 203.32 153.62 L 200.65 154.28 L 197.83 155.09 L 195.16 156.09 L 193 157.2 L 191 158.43 L 189.39 160 L 187.92 161.68 L 186.84 163.75 L 186.09 166.09 L 185.55 168.73 L 185.37 171.67 L 185.46 173.86 L 185.64 175.86 L 186 177.69 L 186.48 179.34 L 187.08 180.84 L 187.83 182.1 L 188.67 183.21 L 189.67 184.14 L 190.75 185.01 L 192.13 185.67 L 193.48 186.24 L 194.98 186.69 L 196.69 187.11 L 198.46 187.35 L 200.38 187.53 L 202.38 187.53 L 204.75 187.44 L 207.12 186.96 L 209.46 186.15 L 211.92 185.15 L 214.29 183.83 L 216.57 182.21 L 218.67 180.44 L 220.67 178.34 L 220.77 151.34 M 199.77 79.06 L 203.37 79.06 L 206.94 79.24 L 210.24 79.42 L 213.54 79.72 L 216.66 80.17 L 219.6 80.56 L 222.45 81.19 L 225.24 81.85 L 227.86 82.54 L 230.32 83.38 L 232.66 84.31 L 234.94 85.31 L 237.07 86.31 L 238.99 87.51 L 240.85 88.8 L 242.65 90.12 L 244.21 91.56 L 245.77 93.1 L 247.18 94.69 L 248.53 96.49 L 249.73 98.26 L 250.81 100.12 L 251.81 102.12 L 252.65 104.12 L 253.49 106.34 L 254.18 108.62 L 254.75 110.9 L 255.2 113.36 L 255.59 115.88 L 255.86 118.52 L 256.01 121.22 L 256.01 212.1 L 220.77 212.1 L 220.77 198.3 L 218.94 200 L 217.29 201.62 L 215.67 203.18 L 214.26 204.59 L 212.64 206 L 210.87 207.47 L 208.77 208.79 L 206.46 210.14 L 204.09 211.43 L 201.78 212.51 L 199.5 213.44 L 197.19 214.19 L 196.02 214.55 L 194.64 214.82 L 193.32 215.03 L 191.79 215.21 L 190.11 215.39 L 188.4 215.48 L 186.57 215.54 L 182.7 215.54 L 180.84 215.39 L 179.04 215.21 L 177.39 214.88 L 175.62 214.46 L 173.91 213.98 L 172.32 213.35 L 170.7 212.69 L 169.2 211.91 L 167.67 211.07 L 166.26 210.14 L 164.82 209.14 L 163.35 208 L 162 206.7 L 160.74 205.44 L 159.48 204 L 157.1 201 L 155.1 197.85 L 153.42 194.49 L 152 191 L 150.89 187.28 L 150.14 183.41 L 149.63 179.41 L 149.54 175.09 L 149.63 171.52 L 149.81 168.22 L 150.23 165.01 L 150.8 162.07 L 151.52 159.19 L 152.36 156.55 L 153.44 154.14 L 154.64 151.86 L 155.88 149.64 L 157.41 147.64 L 158.99 145.69 L 160.79 143.89 L 162.6 142 L 164.6 140.47 L 166.8 138.97 L 169.17 137.62 L 171.6 136.33 L 174.15 135.16 L 176.82 134.16 L 179.73 133.16 L 182.67 132.32 L 185.67 131.57 L 188.79 130.88 L 192.09 130.31 L 198.9 129.31 L 206.01 128.47 L 213.36 127.69 L 220.92 127.12 L 220.92 126.46 L 220.77 123.82 L 220.44 121.42 L 219.9 119.32 L 219.15 117.4 L 218.15 115.63 L 216.95 114.07 L 215.6 112.72 L 214 111.59 L 212.14 110.59 L 210.14 109.75 L 207.86 109.09 L 205.31 108.46 L 202.64 108.07 L 199.76 107.71 L 196.55 107.53 L 193.19 107.44 L 189.98 107.62 L 186.41 108.16 L 182.54 109 L 178.49 110.08 L 174.38 111.46 L 170.24 113.05 L 166.1 114.79 L 162 116.72 L 159 116.72 L 159 85.51 L 160.44 85.06 L 162.16 84.58 L 163.92 84.13 L 165.92 83.65 L 168.2 83.02 L 170.54 82.54 L 173.27 81.94 L 176.03 81.46 L 182 80.35 L 187.88 79.63 L 193.88 79.15 L 199.77 79.06 M 0 40.51 L 46.51 40.51 L 94.69 138.83 L 94.69 40.51 L 129.38 40.51 L 129.38 212.13 L 92.83 212.13 L 34.69 92.5 L 34.69 212.13 L 0 212.13 L 0 40.51"/></g></g></svg>
